<svg xmlns="http://www.w3.org/2000/svg" viewBox="0 0 24 24" id="Pet-Animals-Bear--Streamline-Pixel" height="24" width="24"><desc>Pet Animals Bear Streamline Icon: https://streamlinehq.com</desc><title>pet-animals-bear</title><g><path d="M22.86 3.4275H24v4.574999999999999h-1.1400000000000001Z" fill="#000000" stroke-width="0.75"></path><path d="M20.572499999999998 11.43h1.1400000000000001v4.5675h-1.1400000000000001Z" fill="#000000" stroke-width="0.75"></path><path d="M20.572499999999998 8.0025h2.2874999999999996v1.1400000000000001h-2.2874999999999996Z" fill="#000000" stroke-width="0.75"></path><path d="M19.4325 15.997499999999999h1.1400000000000001v2.2874999999999996h-1.1400000000000001Z" fill="#000000" stroke-width="0.75"></path><path d="M19.4325 9.1425h1.1400000000000001v2.2874999999999996h-1.1400000000000001Z" fill="#000000" stroke-width="0.75"></path><path d="M19.4325 4.5675h2.2800000000000002v2.2874999999999996h-2.2800000000000002Z" fill="#000000" stroke-width="0.75"></path><path d="M18.285 2.2874999999999996h4.574999999999999v1.1400000000000001h-4.574999999999999Z" fill="#000000" stroke-width="0.75"></path><path d="M18.285 18.285h1.1475v1.1400000000000001h-1.1475Z" fill="#000000" stroke-width="0.75"></path><path d="M16.005 19.424999999999997h2.2800000000000002v1.1475h-2.2800000000000002Z" fill="#000000" stroke-width="0.75"></path><path d="M16.005 3.4275h2.2800000000000002v1.1400000000000001h-2.2800000000000002Z" fill="#000000" stroke-width="0.75"></path><path d="M14.857499999999998 8.0025h1.1475v1.1400000000000001h-1.1475Z" fill="#000000" stroke-width="0.75"></path><path d="M8.0025 20.572499999999998h8.0025v1.1400000000000001H8.0025Z" fill="#000000" stroke-width="0.75"></path><path d="M13.7175 13.71h1.1400000000000001v1.1475h-1.1400000000000001Z" fill="#000000" stroke-width="0.75"></path><path d="m9.1425 10.2825 0 1.1475 1.1475 0 0 1.1400000000000001 1.1400000000000001 0 0 1.1400000000000001 1.1400000000000001 0 0 -1.1400000000000001 1.1475 0 0 -1.1400000000000001 1.1400000000000001 0 0 -1.1475 -5.715 0z" fill="#000000" stroke-width="0.75"></path><path d="M11.43 14.857499999999998h2.2874999999999996v1.1400000000000001h-2.2874999999999996Z" fill="#000000" stroke-width="0.75"></path><path d="M8.0025 2.2874999999999996h8.0025v1.1400000000000001H8.0025Z" fill="#000000" stroke-width="0.75"></path><path d="M8.0025 8.0025h1.1400000000000001v1.1400000000000001h-1.1400000000000001Z" fill="#000000" stroke-width="0.75"></path><path d="M5.715 19.424999999999997h2.2874999999999996v1.1475H5.715Z" fill="#000000" stroke-width="0.75"></path><path d="M5.715 3.4275h2.2874999999999996v1.1400000000000001H5.715Z" fill="#000000" stroke-width="0.75"></path><path d="M4.574999999999999 18.285h1.1400000000000001v1.1400000000000001H4.574999999999999Z" fill="#000000" stroke-width="0.75"></path><path d="M3.4275 15.997499999999999H4.574999999999999v2.2874999999999996H3.4275Z" fill="#000000" stroke-width="0.75"></path><path d="M3.4275 9.1425H4.574999999999999v2.2874999999999996H3.4275Z" fill="#000000" stroke-width="0.75"></path><path d="M2.2874999999999996 11.43h1.1400000000000001v4.5675H2.2874999999999996Z" fill="#000000" stroke-width="0.75"></path><path d="M1.1475 8.0025h2.2800000000000002v1.1400000000000001H1.1475Z" fill="#000000" stroke-width="0.75"></path><path d="M2.2874999999999996 4.5675H4.574999999999999v2.2874999999999996H2.2874999999999996Z" fill="#000000" stroke-width="0.75"></path><path d="M1.1475 2.2874999999999996h4.5675v1.1400000000000001H1.1475Z" fill="#000000" stroke-width="0.75"></path><path d="M0 3.4275h1.1475v4.574999999999999H0Z" fill="#000000" stroke-width="0.75"></path></g></svg>