<svg xmlns="http://www.w3.org/2000/svg" viewBox="0 0 24 24" id="Food-Drink-Fish--Streamline-Pixel" height="24" width="24"><desc>Food Drink Fish Streamline Icon: https://streamlinehq.com</desc><title>food-drink-fish</title><g><path d="M22.8525 13.713750000000001H24v2.2874999999999996h-1.1475Z" fill="#000000" stroke-width="0.75"></path><path d="M22.8525 7.998749999999999H24v2.2874999999999996h-1.1475Z" fill="#000000" stroke-width="0.75"></path><path d="M21.7125 12.57375h1.1400000000000001v1.1400000000000001h-1.1400000000000001Z" fill="#000000" stroke-width="0.75"></path><path d="M21.7125 10.286249999999999h1.1400000000000001v1.1400000000000001h-1.1400000000000001Z" fill="#000000" stroke-width="0.75"></path><path d="M20.565 6.85875h2.2874999999999996v1.1400000000000001h-2.2874999999999996Z" fill="#000000" stroke-width="0.75"></path><path d="M20.565 16.00125h2.2874999999999996v1.1400000000000001h-2.2874999999999996Z" fill="#000000" stroke-width="0.75"></path><path d="M20.565 11.42625h1.1475v1.1475h-1.1475Z" fill="#000000" stroke-width="0.75"></path><path d="M19.424999999999997 14.85375h1.1400000000000001v1.1475H19.424999999999997Z" fill="#000000" stroke-width="0.75"></path><path d="M19.424999999999997 7.998749999999999h1.1400000000000001v1.1400000000000001H19.424999999999997Z" fill="#000000" stroke-width="0.75"></path><path d="M18.285 13.713750000000001h1.1400000000000001v1.1400000000000001h-1.1400000000000001Z" fill="#000000" stroke-width="0.75"></path><path d="M18.285 9.13875h1.1400000000000001v1.1475h-1.1400000000000001Z" fill="#000000" stroke-width="0.75"></path><path d="M17.137500000000003 14.85375h1.1475v1.1475h-1.1475Z" fill="#000000" stroke-width="0.75"></path><path d="M17.137500000000003 7.998749999999999h1.1475v1.1400000000000001h-1.1475Z" fill="#000000" stroke-width="0.75"></path><path d="M15.997499999999999 16.00125h1.1400000000000001v1.1400000000000001h-1.1400000000000001Z" fill="#000000" stroke-width="0.75"></path><path d="M15.997499999999999 6.85875h1.1400000000000001v1.1400000000000001h-1.1400000000000001Z" fill="#000000" stroke-width="0.75"></path><path d="M14.857499999999998 17.14125h1.1400000000000001v1.1475h-1.1400000000000001Z" fill="#000000" stroke-width="0.75"></path><path d="M14.857499999999998 5.71125h1.1400000000000001v1.1475h-1.1400000000000001Z" fill="#000000" stroke-width="0.75"></path><path d="M12.57 18.28875h2.2874999999999996v1.1400000000000001h-2.2874999999999996Z" fill="#000000" stroke-width="0.75"></path><path d="M12.57 4.57125h2.2874999999999996v1.1400000000000001h-2.2874999999999996Z" fill="#000000" stroke-width="0.75"></path><path d="M7.995 19.42875h4.574999999999999v1.1400000000000001h-4.574999999999999Z" fill="#000000" stroke-width="0.75"></path><path d="M7.995 3.4312500000000004h4.574999999999999v1.1400000000000001h-4.574999999999999Z" fill="#000000" stroke-width="0.75"></path><path d="M4.5675 18.28875h3.4275v1.1400000000000001H4.5675Z" fill="#000000" stroke-width="0.75"></path><path d="M4.5675 4.57125h3.4275v1.1400000000000001H4.5675Z" fill="#000000" stroke-width="0.75"></path><path d="M2.2800000000000002 17.14125h2.2874999999999996v1.1475H2.2800000000000002Z" fill="#000000" stroke-width="0.75"></path><path d="M3.4275 11.42625h2.2800000000000002v2.2874999999999996H3.4275Z" fill="#000000" stroke-width="0.75"></path><path d="M2.2800000000000002 5.71125h2.2874999999999996v1.1475H2.2800000000000002Z" fill="#000000" stroke-width="0.75"></path><path d="M1.1400000000000001 14.85375h1.1400000000000001v2.2874999999999996H1.1400000000000001Z" fill="#000000" stroke-width="0.75"></path><path d="M1.1400000000000001 6.85875h1.1400000000000001v2.2800000000000002H1.1400000000000001Z" fill="#000000" stroke-width="0.75"></path><path d="M0 9.13875h1.1400000000000001v5.715H0Z" fill="#000000" stroke-width="0.75"></path></g></svg>