<svg xmlns="http://www.w3.org/2000/svg" viewBox="0 0 24 24" id="Pet-Animals-Frog--Streamline-Pixel" height="24" width="24"><desc>Pet Animals Frog Streamline Icon: https://streamlinehq.com</desc><title>pet-animals-frog</title><g><path d="M22.86 11.43H24v8.0025h-1.1400000000000001Z" fill="#000000" stroke-width="0.75"></path><path d="M21.7125 19.4325h1.1475v1.1400000000000001h-1.1475Z" fill="#000000" stroke-width="0.75"></path><path d="M21.7125 9.1425h1.1475v2.2874999999999996h-1.1475Z" fill="#000000" stroke-width="0.75"></path><path d="M20.572499999999998 20.572499999999998h1.1400000000000001v1.1475h-1.1400000000000001Z" fill="#000000" stroke-width="0.75"></path><path d="M20.572499999999998 6.862500000000001h1.1400000000000001v2.2800000000000002h-1.1400000000000001Z" fill="#000000" stroke-width="0.75"></path><path d="M19.4325 21.72h1.1400000000000001v1.1400000000000001h-1.1400000000000001Z" fill="#000000" stroke-width="0.75"></path><path d="M19.4325 5.715h1.1400000000000001v1.1475h-1.1400000000000001Z" fill="#000000" stroke-width="0.75"></path><path d="M18.285 2.2874999999999996h1.1475v3.4275h-1.1475Z" fill="#000000" stroke-width="0.75"></path><path d="m12.57 22.86 0 -1.1400000000000001 2.2874999999999996 0 0 -1.1475 -3.4275 0 0 1.1475 -5.715 0 0 1.1400000000000001 5.715 0 0 1.1400000000000001 8.0025 0 0 -1.1400000000000001 -6.862500000000001 0z" fill="#000000" stroke-width="0.75"></path><path d="M17.145 1.1475h1.1400000000000001v1.1400000000000001h-1.1400000000000001Z" fill="#000000" stroke-width="0.75"></path><path d="M14.857499999999998 11.43h2.2874999999999996v1.1400000000000001h-2.2874999999999996Z" fill="#000000" stroke-width="0.75"></path><path d="M14.857499999999998 19.4325h1.1475v1.1400000000000001h-1.1475Z" fill="#000000" stroke-width="0.75"></path><path d="M13.7175 0h3.4275v1.1475h-3.4275Z" fill="#000000" stroke-width="0.75"></path><path d="M13.7175 18.285h1.1400000000000001v1.1475h-1.1400000000000001Z" fill="#000000" stroke-width="0.75"></path><path d="M13.7175 12.57h1.1400000000000001v1.1475h-1.1400000000000001Z" fill="#000000" stroke-width="0.75"></path><path d="M13.7175 2.2874999999999996h2.2874999999999996V4.574999999999999h-2.2874999999999996Z" fill="#000000" stroke-width="0.75"></path><path d="M12.57 13.7175h1.1475v4.5675h-1.1475Z" fill="#000000" stroke-width="0.75"></path><path d="M12.57 1.1475h1.1475v1.1400000000000001h-1.1475Z" fill="#000000" stroke-width="0.75"></path><path d="M11.43 2.2874999999999996h1.1400000000000001V4.574999999999999h-1.1400000000000001Z" fill="#000000" stroke-width="0.75"></path><path d="M10.290000000000001 19.4325h1.1400000000000001v1.1400000000000001h-1.1400000000000001Z" fill="#000000" stroke-width="0.75"></path><path d="M9.1425 16.005h1.1475v3.4275h-1.1475Z" fill="#000000" stroke-width="0.75"></path><path d="M9.1425 4.574999999999999h2.2874999999999996v1.1400000000000001h-2.2874999999999996Z" fill="#000000" stroke-width="0.75"></path><path d="M8.0025 14.857499999999998h1.1400000000000001v1.1475h-1.1400000000000001Z" fill="#000000" stroke-width="0.75"></path><path d="M8.0025 6.862500000000001h1.1400000000000001v1.1400000000000001h-1.1400000000000001Z" fill="#000000" stroke-width="0.75"></path><path d="M8.0025 2.2874999999999996h1.1400000000000001V4.574999999999999h-1.1400000000000001Z" fill="#000000" stroke-width="0.75"></path><path d="M6.862500000000001 1.1475h1.1400000000000001v1.1400000000000001H6.862500000000001Z" fill="#000000" stroke-width="0.75"></path><path d="M4.574999999999999 8.0025h3.4275v1.1400000000000001H4.574999999999999Z" fill="#000000" stroke-width="0.75"></path><path d="M4.574999999999999 20.572499999999998h1.1400000000000001v1.1475H4.574999999999999Z" fill="#000000" stroke-width="0.75"></path><path d="M3.4275 0h3.435v1.1475H3.4275Z" fill="#000000" stroke-width="0.75"></path><path d="m1.1475 22.86 0 -1.1400000000000001 -1.1475 0L0 24l5.715 0 0 -1.1400000000000001 -4.5675 0z" fill="#000000" stroke-width="0.75"></path><path d="M2.2874999999999996 13.7175h5.715v1.1400000000000001H2.2874999999999996Z" fill="#000000" stroke-width="0.75"></path><path d="M3.4275 2.2874999999999996h2.2874999999999996V4.574999999999999H3.4275Z" fill="#000000" stroke-width="0.75"></path><path d="m3.4275 20.572499999999998 1.1475 0 0 -1.1400000000000001 -2.2874999999999996 0 0 1.1400000000000001 -1.1400000000000001 0 0 1.1475 2.2800000000000002 0 0 -1.1475z" fill="#000000" stroke-width="0.75"></path><path d="M2.2874999999999996 5.715h1.1400000000000001v2.2874999999999996H2.2874999999999996Z" fill="#000000" stroke-width="0.75"></path><path d="M2.2874999999999996 1.1475h1.1400000000000001v1.1400000000000001H2.2874999999999996Z" fill="#000000" stroke-width="0.75"></path><path d="M1.1475 18.285h1.1400000000000001v1.1475H1.1475Z" fill="#000000" stroke-width="0.75"></path><path d="M1.1475 8.0025h1.1400000000000001v2.2874999999999996H1.1475Z" fill="#000000" stroke-width="0.75"></path><path d="M1.1475 2.2874999999999996h1.1400000000000001v3.4275H1.1475Z" fill="#000000" stroke-width="0.75"></path><path d="m2.2874999999999996 16.005 0 -1.1475 -1.1400000000000001 0 0 -4.5675 -1.1475 0 0 7.995 1.1475 0 0 -2.2800000000000002 1.1400000000000001 0z" fill="#000000" stroke-width="0.75"></path></g></svg>