<svg xmlns="http://www.w3.org/2000/svg" viewBox="0 0 24 24" id="Pet-Animals-Gorilla--Streamline-Pixel" height="24" width="24"><desc>Pet Animals Gorilla Streamline Icon: https://streamlinehq.com</desc><title>pet-animals-gorilla</title><g><path d="M21.708750000000002 10.2825h1.1475v8.0025h-1.1475Z" fill="#000000" stroke-width="0.75"></path><path d="M20.56875 18.285h1.1400000000000001v1.1400000000000001h-1.1400000000000001Z" fill="#000000" stroke-width="0.75"></path><path d="M20.56875 6.855h1.1400000000000001v3.4275h-1.1400000000000001Z" fill="#000000" stroke-width="0.75"></path><path d="M19.42875 19.424999999999997h1.1400000000000001v1.1475h-1.1400000000000001Z" fill="#000000" stroke-width="0.75"></path><path d="M19.42875 4.5675h1.1400000000000001v2.2874999999999996h-1.1400000000000001Z" fill="#000000" stroke-width="0.75"></path><path d="M18.28125 3.4275h1.1475v1.1400000000000001h-1.1475Z" fill="#000000" stroke-width="0.75"></path><path d="M17.14125 20.572499999999998h2.2874999999999996v1.1400000000000001h-2.2874999999999996Z" fill="#000000" stroke-width="0.75"></path><path d="M17.14125 6.855h1.1400000000000001v1.1475h-1.1400000000000001Z" fill="#000000" stroke-width="0.75"></path><path d="M6.85875 17.145h1.1400000000000001v1.1400000000000001h8.0025v-1.1400000000000001h1.1400000000000001v-2.2874999999999996h1.1400000000000001v-4.574999999999999h-1.1400000000000001v-1.1400000000000001H6.85875v1.1400000000000001h-1.1475v4.574999999999999h1.1475Zm7.995 -6.862500000000001h1.1475v2.2874999999999996h-1.1475Zm-2.2874999999999996 3.4275h1.1475v1.1475h-1.1475Zm-2.2800000000000002 0h1.1400000000000001v1.1475h-1.1400000000000001Zm-2.2874999999999996 -3.4275h1.1400000000000001v2.2874999999999996h-1.1400000000000001Z" fill="#000000" stroke-width="0.75"></path><path d="M13.713750000000001 5.715h3.4275v1.1400000000000001h-3.4275Z" fill="#000000" stroke-width="0.75"></path><path d="M6.85875 21.7125h10.2825v1.1475H6.85875Z" fill="#000000" stroke-width="0.75"></path><path d="M14.85375 2.2874999999999996h3.4275v1.1400000000000001h-3.4275Z" fill="#000000" stroke-width="0.75"></path><path d="M10.286249999999999 6.855h3.4275v1.1475h-3.4275Z" fill="#000000" stroke-width="0.75"></path><path d="M9.13875 1.1400000000000001h5.715v1.1475h-5.715Z" fill="#000000" stroke-width="0.75"></path><path d="M6.85875 5.715h3.4275v1.1400000000000001h-3.4275Z" fill="#000000" stroke-width="0.75"></path><path d="M5.71125 2.2874999999999996h3.4275v1.1400000000000001h-3.4275Z" fill="#000000" stroke-width="0.75"></path><path d="M4.57125 20.572499999999998h2.2874999999999996v1.1400000000000001h-2.2874999999999996Z" fill="#000000" stroke-width="0.75"></path><path d="M5.71125 6.855h1.1475v1.1475h-1.1475Z" fill="#000000" stroke-width="0.75"></path><path d="M4.57125 3.4275h1.1400000000000001v1.1400000000000001h-1.1400000000000001Z" fill="#000000" stroke-width="0.75"></path><path d="M3.42375 19.424999999999997h1.1475v1.1475h-1.1475Z" fill="#000000" stroke-width="0.75"></path><path d="M3.42375 4.5675h1.1475v2.2874999999999996h-1.1475Z" fill="#000000" stroke-width="0.75"></path><path d="M2.28375 18.285h1.1400000000000001v1.1400000000000001h-1.1400000000000001Z" fill="#000000" stroke-width="0.75"></path><path d="M2.28375 6.855h1.1400000000000001v3.4275h-1.1400000000000001Z" fill="#000000" stroke-width="0.75"></path><path d="M1.1437499999999998 10.2825h1.1400000000000001v8.0025h-1.1400000000000001Z" fill="#000000" stroke-width="0.75"></path></g></svg>