<svg xmlns="http://www.w3.org/2000/svg" viewBox="0 0 24 24" id="Pet-Animals-Ox--Streamline-Pixel" height="24" width="24"><desc>Pet Animals Ox Streamline Icon: https://streamlinehq.com</desc><title>pet-animals-ox</title><g><path d="M22.86 10.290000000000001H24v1.1400000000000001h-1.1400000000000001Z" fill="#000000" stroke-width="0.75"></path><path d="M22.86 3.4275H24v3.435h-1.1400000000000001Z" fill="#000000" stroke-width="0.75"></path><path d="M21.7125 9.1425h1.1475v1.1475h-1.1475Z" fill="#000000" stroke-width="0.75"></path><path d="M21.7125 6.862500000000001h1.1475v1.1400000000000001h-1.1475Z" fill="#000000" stroke-width="0.75"></path><path d="M21.7125 2.2874999999999996h1.1475v1.1400000000000001h-1.1475Z" fill="#000000" stroke-width="0.75"></path><path d="m18.285 11.43 0 3.4275 1.1475 0 0 -2.2874999999999996 3.4275 0 0 -1.1400000000000001 -4.574999999999999 0z" fill="#000000" stroke-width="0.75"></path><path d="m20.572499999999998 2.2874999999999996 1.1400000000000001 0 0 -1.1400000000000001 1.1475 0 0 -1.1475 -3.4275 0 0 1.1475 1.1400000000000001 0 0 1.1400000000000001z" fill="#000000" stroke-width="0.75"></path><path d="M19.4325 8.0025h2.2800000000000002v1.1400000000000001h-2.2800000000000002Z" fill="#000000" stroke-width="0.75"></path><path d="m20.572499999999998 3.4275 -1.1400000000000001 0 0 1.1475 -1.1475 0 0 1.1400000000000001 2.2874999999999996 0 0 -2.2874999999999996z" fill="#000000" stroke-width="0.75"></path><path d="M18.285 1.1475h1.1475v2.2800000000000002h-1.1475Z" fill="#000000" stroke-width="0.75"></path><path d="M17.145 14.857499999999998h1.1400000000000001v3.4275h-1.1400000000000001Z" fill="#000000" stroke-width="0.75"></path><path d="M17.145 10.290000000000001h1.1400000000000001v1.1400000000000001h-1.1400000000000001Z" fill="#000000" stroke-width="0.75"></path><path d="M17.145 5.715h1.1400000000000001v1.1475h-1.1400000000000001Z" fill="#000000" stroke-width="0.75"></path><path d="M16.005 17.145h-3.435v1.1400000000000001h-1.1400000000000001v-1.1400000000000001h-3.4275v1.1400000000000001H6.862500000000001v1.1475H5.715v2.2874999999999996h1.1475v1.1400000000000001h1.1400000000000001V24h8.0025v-1.1400000000000001h1.1400000000000001v-1.1400000000000001h1.1400000000000001v-2.2874999999999996h-1.1400000000000001v-1.1475h-1.1400000000000001Zm-1.1475 3.4275h-1.1400000000000001v1.1475h-3.4275v-1.1475h-1.1475v-1.1400000000000001h2.2874999999999996v1.1400000000000001h1.1400000000000001v-1.1400000000000001h2.2874999999999996Z" fill="#000000" stroke-width="0.75"></path><path d="M14.857499999999998 12.57h1.1475v1.1475h-1.1475Z" fill="#000000" stroke-width="0.75"></path><path d="M14.857499999999998 4.574999999999999h2.2874999999999996v1.1400000000000001h-2.2874999999999996Z" fill="#000000" stroke-width="0.75"></path><path d="M13.7175 13.7175h1.1400000000000001v1.1400000000000001h-1.1400000000000001Z" fill="#000000" stroke-width="0.75"></path><path d="M9.1425 3.4275h5.715V4.574999999999999h-5.715Z" fill="#000000" stroke-width="0.75"></path><path d="M9.1425 13.7175h1.1475v1.1400000000000001h-1.1475Z" fill="#000000" stroke-width="0.75"></path><path d="M8.0025 12.57h1.1400000000000001v1.1475h-1.1400000000000001Z" fill="#000000" stroke-width="0.75"></path><path d="M6.862500000000001 4.574999999999999h2.2800000000000002v1.1400000000000001H6.862500000000001Z" fill="#000000" stroke-width="0.75"></path><path d="M5.715 14.857499999999998h1.1475v3.4275H5.715Z" fill="#000000" stroke-width="0.75"></path><path d="M5.715 5.715h1.1475v1.1475H5.715Z" fill="#000000" stroke-width="0.75"></path><path d="m5.715 11.43 -4.5675 0 0 1.1400000000000001 3.4275 0 0 2.2874999999999996 1.1400000000000001 0 0 -3.4275z" fill="#000000" stroke-width="0.75"></path><path d="M4.574999999999999 1.1475h1.1400000000000001v2.2800000000000002H4.574999999999999Z" fill="#000000" stroke-width="0.75"></path><path d="M2.2874999999999996 8.0025H4.574999999999999v1.1400000000000001H2.2874999999999996Z" fill="#000000" stroke-width="0.75"></path><path d="m3.4275 5.715 2.2874999999999996 0 0 -1.1400000000000001 -1.1400000000000001 0 0 -1.1475 -1.1475 0 0 2.2874999999999996z" fill="#000000" stroke-width="0.75"></path><path d="m3.4275 1.1475 1.1475 0L4.574999999999999 0 1.1475 0l0 1.1475 1.1400000000000001 0 0 1.1400000000000001 1.1400000000000001 0 0 -1.1400000000000001z" fill="#000000" stroke-width="0.75"></path><path d="M1.1475 9.1425h1.1400000000000001v1.1475H1.1475Z" fill="#000000" stroke-width="0.75"></path><path d="M1.1475 6.862500000000001h1.1400000000000001v1.1400000000000001H1.1475Z" fill="#000000" stroke-width="0.75"></path><path d="M1.1475 2.2874999999999996h1.1400000000000001v1.1400000000000001H1.1475Z" fill="#000000" stroke-width="0.75"></path><path d="M0 10.290000000000001h1.1475v1.1400000000000001H0Z" fill="#000000" stroke-width="0.75"></path><path d="M0 3.4275h1.1475v3.435H0Z" fill="#000000" stroke-width="0.75"></path></g></svg>