<svg xmlns="http://www.w3.org/2000/svg" viewBox="0 0 24 24" id="Pet-Animals-Pig--Streamline-Pixel" height="24" width="24"><desc>Pet Animals Pig Streamline Icon: https://streamlinehq.com</desc><title>pet-animals-pig</title><g><path d="M22.86 10.85625H24v4.5675h-1.1400000000000001Z" fill="#000000" stroke-width="0.75"></path><path d="M22.86 2.8537500000000002H24v4.574999999999999h-1.1400000000000001Z" fill="#000000" stroke-width="0.75"></path><path d="M21.7125 15.423750000000002h1.1475v2.2874999999999996h-1.1475Z" fill="#000000" stroke-width="0.75"></path><path d="M21.7125 7.428749999999999h1.1475v3.4275h-1.1475Z" fill="#000000" stroke-width="0.75"></path><path d="M20.572499999999998 17.71125h1.1400000000000001v1.1400000000000001h-1.1400000000000001Z" fill="#000000" stroke-width="0.75"></path><path d="M20.572499999999998 6.28125h1.1400000000000001v1.1475h-1.1400000000000001Z" fill="#000000" stroke-width="0.75"></path><path d="M19.4325 18.85125h1.1400000000000001v1.1475h-1.1400000000000001Z" fill="#000000" stroke-width="0.75"></path><path d="M19.4325 5.14125h1.1400000000000001v1.1400000000000001h-1.1400000000000001Z" fill="#000000" stroke-width="0.75"></path><path d="M17.145 1.71375h5.715v1.1400000000000001h-5.715Z" fill="#000000" stroke-width="0.75"></path><path d="M16.005 19.99875h3.4275v1.1400000000000001h-3.4275Z" fill="#000000" stroke-width="0.75"></path><path d="M16.005 2.8537500000000002h1.1400000000000001v1.1400000000000001h-1.1400000000000001Z" fill="#000000" stroke-width="0.75"></path><path d="M16.005 12H8.0025v1.1400000000000001H6.862500000000001v3.435h1.1400000000000001v1.1400000000000001h8.0025V16.575000000000003h1.1400000000000001v-3.435h-1.1400000000000001Zm-4.574999999999999 4.574999999999999h-2.2874999999999996v-2.2874999999999996h2.2874999999999996Zm3.4275 0h-2.2874999999999996v-2.2874999999999996h2.2874999999999996Z" fill="#000000" stroke-width="0.75"></path><path d="M8.0025 21.138749999999998h8.0025v1.1475H8.0025Z" fill="#000000" stroke-width="0.75"></path><path d="M13.7175 9.70875h1.1400000000000001v1.1475h-1.1400000000000001Z" fill="#000000" stroke-width="0.75"></path><path d="M9.1425 9.70875h1.1475v1.1475h-1.1475Z" fill="#000000" stroke-width="0.75"></path><path d="M8.0025 1.71375h8.0025v1.1400000000000001H8.0025Z" fill="#000000" stroke-width="0.75"></path><path d="M4.574999999999999 19.99875h3.4275v1.1400000000000001H4.574999999999999Z" fill="#000000" stroke-width="0.75"></path><path d="M6.862500000000001 2.8537500000000002h1.1400000000000001v1.1400000000000001H6.862500000000001Z" fill="#000000" stroke-width="0.75"></path><path d="M3.4275 18.85125H4.574999999999999v1.1475H3.4275Z" fill="#000000" stroke-width="0.75"></path><path d="M3.4275 5.14125H4.574999999999999v1.1400000000000001H3.4275Z" fill="#000000" stroke-width="0.75"></path><path d="M2.2874999999999996 17.71125h1.1400000000000001v1.1400000000000001H2.2874999999999996Z" fill="#000000" stroke-width="0.75"></path><path d="M2.2874999999999996 6.28125h1.1400000000000001v1.1475H2.2874999999999996Z" fill="#000000" stroke-width="0.75"></path><path d="M1.1475 1.71375h5.715v1.1400000000000001H1.1475Z" fill="#000000" stroke-width="0.75"></path><path d="M1.1475 15.423750000000002h1.1400000000000001v2.2874999999999996H1.1475Z" fill="#000000" stroke-width="0.75"></path><path d="M1.1475 7.428749999999999h1.1400000000000001v3.4275H1.1475Z" fill="#000000" stroke-width="0.75"></path><path d="M0 10.85625h1.1475v4.5675H0Z" fill="#000000" stroke-width="0.75"></path><path d="M0 2.8537500000000002h1.1475v4.574999999999999H0Z" fill="#000000" stroke-width="0.75"></path></g></svg>