<svg xmlns="http://www.w3.org/2000/svg" viewBox="0 0 24 24" id="Pet-Animals-Turtle--Streamline-Pixel" height="24" width="24"><desc>Pet Animals Turtle Streamline Icon: https://streamlinehq.com</desc><title>pet-animals-turtle</title><g><path d="M22.86 12.57H24v1.1475h-1.1400000000000001Z" fill="#000000" stroke-width="0.75"></path><path d="M21.7125 13.7175h1.1475v1.1400000000000001h-1.1475Z" fill="#000000" stroke-width="0.75"></path><path d="M20.572499999999998 17.145h1.1400000000000001v2.2874999999999996h-1.1400000000000001Z" fill="#000000" stroke-width="0.75"></path><path d="M20.572499999999998 14.857499999999998h1.1400000000000001v1.1475h-1.1400000000000001Z" fill="#000000" stroke-width="0.75"></path><path d="M19.4325 16.005h1.1400000000000001v1.1400000000000001h-1.1400000000000001Z" fill="#000000" stroke-width="0.75"></path><path d="M17.145 19.4325h3.4275v1.1400000000000001h-3.4275Z" fill="#000000" stroke-width="0.75"></path><path d="M17.145 4.574999999999999h1.1400000000000001v1.1400000000000001h-1.1400000000000001Z" fill="#000000" stroke-width="0.75"></path><path d="M16.005 18.285h1.1400000000000001v1.1475h-1.1400000000000001Z" fill="#000000" stroke-width="0.75"></path><path d="M14.857499999999998 17.145h1.1475v1.1400000000000001h-1.1475Z" fill="#000000" stroke-width="0.75"></path><path d="M13.7175 16.005h1.1400000000000001v1.1400000000000001h-1.1400000000000001Z" fill="#000000" stroke-width="0.75"></path><path d="M11.43 3.4275h5.715V4.574999999999999h-5.715Z" fill="#000000" stroke-width="0.75"></path><path d="M11.43 17.145h2.2874999999999996v1.1400000000000001h-2.2874999999999996Z" fill="#000000" stroke-width="0.75"></path><path d="M10.290000000000001 16.005h1.1400000000000001v1.1400000000000001h-1.1400000000000001Z" fill="#000000" stroke-width="0.75"></path><path d="M9.1425 17.145h1.1475v1.1400000000000001h-1.1475Z" fill="#000000" stroke-width="0.75"></path><path d="M5.715 18.285h3.4275v1.1475H5.715Z" fill="#000000" stroke-width="0.75"></path><path d="M6.862500000000001 14.857499999999998h1.1400000000000001v1.1475H6.862500000000001Z" fill="#000000" stroke-width="0.75"></path><path d="M6.862500000000001 11.43h1.1400000000000001v1.1400000000000001H6.862500000000001Z" fill="#000000" stroke-width="0.75"></path><path d="M8.0025 9.1425v-1.1400000000000001h1.1400000000000001v1.1400000000000001h1.1475v2.2874999999999996h-1.1475v1.1400000000000001h-1.1400000000000001v1.1475h1.1400000000000001v1.1400000000000001h10.290000000000001v-1.1400000000000001h1.1400000000000001v-1.1475h2.2874999999999996v-1.1400000000000001h-1.1475v-2.2874999999999996h-1.1400000000000001v2.2874999999999996h-1.1400000000000001v1.1400000000000001h-1.1475v-1.1400000000000001h-1.1400000000000001v-2.2874999999999996h1.1400000000000001v-1.1400000000000001h1.1475v1.1400000000000001h1.1400000000000001V6.862500000000001h-1.1400000000000001V5.715h-1.1475v1.1475h-1.1400000000000001v1.1400000000000001h-4.574999999999999V5.715h-1.1400000000000001V4.574999999999999h-2.2874999999999996v1.1400000000000001h-1.1400000000000001v1.1475H6.862500000000001v2.2800000000000002Zm3.4275 3.4275h1.1400000000000001v-1.1400000000000001h3.435v1.1400000000000001h1.1400000000000001v1.1475h-5.715Z" fill="#000000" stroke-width="0.75"></path><path d="M5.715 16.005h1.1475v1.1400000000000001H5.715Z" fill="#000000" stroke-width="0.75"></path><path d="M5.715 13.7175h1.1475v1.1400000000000001H5.715Z" fill="#000000" stroke-width="0.75"></path><path d="M5.715 9.1425h1.1475v2.2874999999999996H5.715Z" fill="#000000" stroke-width="0.75"></path><path d="M5.715 5.715h1.1475v1.1475H5.715Z" fill="#000000" stroke-width="0.75"></path><path d="M4.574999999999999 17.145h1.1400000000000001v1.1400000000000001H4.574999999999999Z" fill="#000000" stroke-width="0.75"></path><path d="M4.574999999999999 12.57h1.1400000000000001v1.1475H4.574999999999999Z" fill="#000000" stroke-width="0.75"></path><path d="M3.4275 11.43H4.574999999999999v1.1400000000000001H3.4275Z" fill="#000000" stroke-width="0.75"></path><path d="M2.2874999999999996 4.574999999999999h3.4275v1.1400000000000001H2.2874999999999996Z" fill="#000000" stroke-width="0.75"></path><path d="M1.1475 10.290000000000001h2.2800000000000002v1.1400000000000001H1.1475Z" fill="#000000" stroke-width="0.75"></path><path d="M2.2874999999999996 8.0025h1.1400000000000001v1.1400000000000001H2.2874999999999996Z" fill="#000000" stroke-width="0.75"></path><path d="M1.1475 5.715h1.1400000000000001v1.1475H1.1475Z" fill="#000000" stroke-width="0.75"></path><path d="M0 6.862500000000001h1.1475v3.4275H0Z" fill="#000000" stroke-width="0.75"></path></g></svg>